# Blender v2.76 (sub 0) OBJ File: 'tree2.blend'
# www.blender.org
mtllib tree1.mtl
o Icosphere_059_Icosphere.059
v -0.224541 0.932491 0.142395
v -0.002127 1.373608 0.543907
v -0.547088 1.539398 0.151375
v -0.602099 1.292749 -0.266622
v 0.098014 0.917340 -0.447380
v 0.439597 1.070016 0.144254
v -0.286049 1.935116 0.053099
v -0.367395 1.681496 -0.621434
v -0.080145 1.380081 -0.780050
v 0.509206 1.316472 -0.392117
v 0.446822 1.604514 0.285110
v 0.346281 1.826677 -0.095893
v -0.458725 1.197721 0.210654
v -0.225599 1.046120 0.381439
v -0.329096 1.452962 0.449768
v 0.260810 1.181870 0.426549
v 0.131389 0.928782 0.184239
v -0.421917 1.030082 -0.144118
v -0.626564 1.376039 -0.119824
v -0.057215 0.862574 -0.158055
v -0.246030 0.989962 -0.488024
v 0.316995 0.901618 -0.144331
v 0.327021 1.557739 0.506149
v 0.575594 1.339555 0.193969
v -0.498214 1.794464 0.029215
v -0.252912 1.718060 0.372762
v -0.586667 1.485552 -0.481213
v -0.541107 1.743617 -0.242297
v 0.011549 1.107995 -0.678473
v -0.348603 1.258293 -0.704928
v 0.525928 1.138113 -0.151191
v 0.362258 1.065188 -0.477075
v -0.121827 1.929571 0.279155
v -0.184903 1.937083 -0.400834
v -0.337086 1.480139 -0.752070
v 0.253084 1.341923 -0.645355
v 0.562645 1.454575 -0.045520
v 0.014283 1.992350 -0.011790
v 0.360041 1.703177 0.202177
v 0.063159 1.898309 -0.419563
v 0.180076 1.640285 -0.629566
v 0.418504 1.592971 -0.264554
v 0.158282 0.636631 0.097595
v -0.172801 0.636631 0.093982
v -0.169188 0.636631 -0.237102
v 0.161896 0.636631 -0.233489
v -0.005453 -0.174972 -0.069753
v 0.242860 0.636631 -0.067043
v 0.135138 0.027929 0.073940
v -0.008163 0.636631 0.178559
v 0.099444 0.916703 0.037589
v -0.149146 0.027929 0.070837
v -0.253766 0.636631 -0.072464
v -0.112790 0.923203 0.034540
v -0.146043 0.027929 -0.213447
v -0.002743 0.636631 -0.318066
v -0.110648 0.894432 -0.175846
v 0.138240 0.027929 -0.210344
v 0.101585 0.887932 -0.172796
v 0.162559 0.909595 -0.067967
v -0.006997 0.937492 0.096022
v -0.173166 0.919877 -0.072791
v -0.003610 0.891980 -0.236780
v 0.194470 0.185741 -0.067571
v -0.007635 0.185740 0.130169
v -0.205375 0.185740 -0.071935
v -0.003271 0.185740 -0.269676
vn -0.669100 -0.672300 0.316600
vn 0.049700 -0.470900 0.880800
vn -0.693800 -0.676300 0.247600
vn -0.418000 -0.908200 -0.021400
vn -0.034700 -0.977500 0.208200
vn 0.243000 -0.241800 0.939400
vn -0.669900 0.421200 0.611400
vn -0.989600 -0.064000 -0.128600
vn -0.093300 -0.784900 -0.612600
vn 0.748700 -0.659500 0.066800
vn -0.106600 0.379100 0.919200
vn -0.965500 0.236800 0.108200
vn -0.801200 -0.415300 -0.430800
vn 0.303000 -0.676400 -0.671400
vn 0.871900 -0.467100 0.147100
vn -0.156600 0.978000 0.137800
vn 0.041200 0.635800 -0.770700
vn 0.074800 0.442100 -0.893800
vn 0.638700 0.485100 -0.597300
vn 0.761700 0.647400 -0.026800
vn 0.965200 0.254400 0.060800
vn 0.740800 0.668600 -0.065100
vn 0.857200 0.419200 -0.299200
vn 0.740500 0.528500 -0.415200
vn 0.828200 0.229700 -0.511200
vn 0.384900 0.142400 -0.911900
vn 0.644800 0.636600 -0.423100
vn -0.010300 0.628400 -0.777800
vn 0.109200 0.552500 -0.826300
vn 0.408500 0.898900 -0.158400
vn 0.135800 0.968800 -0.207200
vn -0.195200 0.980000 -0.039300
vn 0.486500 0.814900 0.315200
vn 0.442300 0.811500 0.382000
vn 0.436500 0.772100 0.461800
vn 0.908600 0.393500 0.139900
vn 0.992100 -0.083800 -0.093900
vn 0.989600 -0.073700 -0.123200
vn 0.685800 -0.161100 -0.709800
vn 0.438300 -0.334400 -0.834300
vn 0.342900 -0.224900 -0.912000
vn -0.181100 -0.195400 -0.963900
vn -0.732400 -0.104900 -0.672800
vn -0.694800 0.314900 -0.646600
vn -0.566300 0.731700 -0.379300
vn -0.503500 0.860200 -0.081500
vn -0.539600 0.833800 -0.116600
vn -0.636600 0.605800 0.477300
vn -0.081900 0.445400 0.891600
vn 0.449100 0.793200 0.411300
vn 0.856600 -0.384600 -0.344100
vn 0.727800 -0.649400 -0.220200
vn 0.426700 -0.833300 -0.351600
vn -0.088400 -0.374400 -0.923000
vn -0.224200 -0.663000 -0.714200
vn -0.724700 -0.579000 -0.373600
vn -0.739000 0.523300 -0.424300
vn -0.976200 0.212500 -0.043400
vn -0.957000 0.263100 0.122000
vn -0.512300 0.684900 0.518100
vn -0.712200 0.376700 0.592300
vn -0.188500 0.323500 0.927300
vn 0.833500 0.232800 0.501000
vn 0.655400 -0.265200 0.707200
vn 0.665600 -0.446200 0.598300
vn 0.428900 -0.847600 0.312400
vn 0.097800 -0.985800 0.136800
vn 0.107600 -0.985800 -0.128900
vn -0.168300 -0.948100 -0.269700
vn -0.418300 -0.901800 -0.108800
vn -0.718700 -0.630100 -0.294000
vn -0.846500 -0.511200 0.149000
vn -0.845700 -0.511100 0.153700
vn -0.912700 -0.171700 0.370900
vn 0.406300 -0.731700 0.547300
vn 0.138200 -0.720900 0.679100
vn -0.059800 -0.901600 0.428300
vn -0.817600 -0.113500 0.564400
vn -0.680400 -0.286400 0.674600
vn -0.321300 -0.235800 0.917200
vn 0.885400 -0.095600 0.454900
vn 0.318700 -0.048900 0.946600
vn 0.424900 0.238000 0.873400
vn 0.832700 0.277600 0.479200
vn -0.454900 -0.095600 0.885400
vn -0.946600 -0.048900 0.318700
vn -0.871100 0.248400 0.423700
vn -0.510600 0.275800 0.814400
vn -0.885400 -0.095600 -0.454900
vn -0.318700 -0.048900 -0.946600
vn -0.420700 0.273900 -0.864900
vn -0.778200 0.306900 -0.547900
vn 0.454900 -0.095600 -0.885400
vn 0.946600 -0.048900 -0.318700
vn 0.869700 0.254400 -0.423000
vn 0.502000 0.315000 -0.805400
vn 0.010200 -0.343800 -0.939000
vn -0.939000 -0.343800 -0.010200
vn -0.010200 -0.343800 0.939000
vn 0.939000 -0.343800 0.010200
vn 0.939400 -0.048900 0.339300
vn 0.435400 -0.095600 0.895100
vn 0.503400 0.280800 0.817100
vn 0.860200 0.254500 0.441900
vn -0.339300 -0.048900 0.939400
vn -0.895100 -0.095600 0.435400
vn -0.842100 0.272800 0.465200
vn -0.443700 0.238700 0.863800
vn -0.939400 -0.048900 -0.339300
vn -0.435400 -0.095600 -0.895100
vn -0.466200 0.303300 -0.831100
vn -0.862400 0.244900 -0.443000
vn 0.339300 -0.048900 -0.939400
vn 0.895100 -0.095600 -0.435400
vn 0.790100 0.316400 -0.525000
vn 0.439500 0.273800 -0.855500
vn 0.008900 -0.573800 -0.819000
vn -0.819000 -0.573800 -0.008900
vn -0.008900 -0.573800 0.819000
vn 0.819000 -0.573800 0.008900
usemtl listy
s off
f 1//1 14//1 13//1
f 2//2 14//2 16//2
f 1//3 13//3 18//3
f 1//4 18//4 20//4
f 1//5 20//5 17//5
f 2//6 16//6 23//6
f 3//7 15//7 25//7
f 4//8 19//8 27//8
f 5//9 21//9 29//9
f 6//10 22//10 31//10
f 2//11 23//11 26//11
f 3//12 25//12 28//12
f 4//13 27//13 30//13
f 5//14 29//14 32//14
f 6//15 31//15 24//15
f 7//16 33//16 38//16
f 8//17 34//17 40//17
f 9//18 35//18 41//18
f 10//19 36//19 42//19
f 11//20 37//20 39//20
f 39//21 42//21 12//21
f 39//22 37//22 42//22
f 37//23 10//23 42//23
f 42//24 41//24 12//24
f 42//25 36//25 41//25
f 36//26 9//26 41//26
f 41//27 40//27 12//27
f 41//28 35//28 40//28
f 35//29 8//29 40//29
f 40//30 38//30 12//30
f 40//31 34//31 38//31
f 34//32 7//32 38//32
f 38//33 39//33 12//33
f 38//34 33//34 39//34
f 33//35 11//35 39//35
f 24//36 37//36 11//36
f 24//37 31//37 37//37
f 31//38 10//38 37//38
f 32//39 36//39 10//39
f 32//40 29//40 36//40
f 29//41 9//41 36//41
f 30//42 35//42 9//42
f 30//43 27//43 35//43
f 27//44 8//44 35//44
f 28//45 34//45 8//45
f 28//46 25//46 34//46
f 25//47 7//47 34//47
f 26//48 33//48 7//48
f 26//49 23//49 33//49
f 23//50 11//50 33//50
f 31//51 32//51 10//51
f 31//52 22//52 32//52
f 22//53 5//53 32//53
f 29//54 30//54 9//54
f 29//55 21//55 30//55
f 21//56 4//56 30//56
f 27//57 28//57 8//57
f 27//58 19//58 28//58
f 19//59 3//59 28//59
f 25//60 26//60 7//60
f 25//61 15//61 26//61
f 15//62 2//62 26//62
f 23//63 24//63 11//63
f 23//64 16//64 24//64
f 16//65 6//65 24//65
f 17//66 22//66 6//66
f 17//67 20//67 22//67
f 20//68 5//68 22//68
f 20//69 21//69 5//69
f 20//70 18//70 21//70
f 18//71 4//71 21//71
f 18//72 19//72 4//72
f 18//73 13//73 19//73
f 13//74 3//74 19//74
f 16//75 17//75 6//75
f 16//76 14//76 17//76
f 14//77 1//77 17//77
f 13//78 15//78 3//78
f 13//79 14//79 15//79
f 14//80 2//80 15//80
usemtl kmen
f 43//81 64//81 48//81
f 43//82 65//82 49//82
f 43//83 61//83 50//83
f 43//84 60//84 51//84
f 44//85 65//85 50//85
f 44//86 66//86 52//86
f 44//87 62//87 53//87
f 44//88 61//88 54//88
f 45//89 66//89 53//89
f 45//90 67//90 55//90
f 45//91 63//91 56//91
f 45//92 62//92 57//92
f 46//93 67//93 56//93
f 46//94 64//94 58//94
f 46//95 60//95 48//95
f 46//96 63//96 59//96
f 58//97 55//97 67//97
f 55//98 52//98 66//98
f 52//99 49//99 65//99
f 49//100 58//100 64//100
f 49//101 64//101 43//101
f 50//102 65//102 43//102
f 51//103 61//103 43//103
f 48//104 60//104 43//104
f 52//105 65//105 44//105
f 53//106 66//106 44//106
f 54//107 62//107 44//107
f 50//108 61//108 44//108
f 55//109 66//109 45//109
f 56//110 67//110 45//110
f 57//111 63//111 45//111
f 53//112 62//112 45//112
f 58//113 67//113 46//113
f 48//114 64//114 46//114
f 59//115 60//115 46//115
f 56//116 63//116 46//116
f 47//117 55//117 58//117
f 47//118 52//118 55//118
f 47//119 49//119 52//119
f 47//120 58//120 49//120
